<mxfile host="app.diagrams.net" modified="2023-04-13T08:02:59.880Z" agent="Mozilla/5.0 (Windows NT 10.0; Win64; x64) AppleWebKit/537.36 (KHTML, like Gecko) Chrome/111.0.0.0 Safari/537.36" version="21.1.7" etag="7PpbyI0L8VB8kz96EY53" type="github">
  <diagram name="Page-1" id="8hj1qtP9T5_wopWU-bOe">
    <mxGraphModel>
      <root>
        <mxCell id="0" />
        <mxCell id="1" parent="0" />
      </root>
    </mxGraphModel>
  </diagram>
</mxfile>
